<mxfile host="65bd71144e">
    <diagram id="HlZOaa3ITaf-mGZHyR-N" name="System">
        <mxGraphModel dx="762" dy="913" grid="1" gridSize="10" guides="1" tooltips="1" connect="1" arrows="1" fold="1" page="1" pageScale="1" pageWidth="850" pageHeight="1100" math="0" shadow="0">
            <root>
                <mxCell id="4v8Te9H-C4W8dcfFRFbH-0"/>
                <mxCell id="4v8Te9H-C4W8dcfFRFbH-1" parent="4v8Te9H-C4W8dcfFRFbH-0"/>
            </root>
        </mxGraphModel>
    </diagram>
    <diagram id="US44iBsGHJqheg-0w2z6" name="Database">
        <mxGraphModel dx="762" dy="913" grid="1" gridSize="10" guides="1" tooltips="1" connect="1" arrows="1" fold="1" page="1" pageScale="1" pageWidth="850" pageHeight="1100" math="0" shadow="0">
            <root>
                <mxCell id="0"/>
                <mxCell id="1" parent="0"/>
            </root>
        </mxGraphModel>
    </diagram>
</mxfile>